<?xml version="1.0" encoding="UTF-8"?>
<svg xmlns="http://www.w3.org/2000/svg" viewBox="0 0 38 38" shape-rendering="crispEdges">
<g fill="black" stroke="none">
  <rect x="9" y="10" width="2" height="7"/>
  <rect x="9" y="9" width="3" height="1"/>
  <rect x="9" y="17" width="3" height="1"/>
  <rect x="10" y="8" width="2" height="1"/>
  <rect x="10" y="18" width="2" height="1"/>
  <rect x="10" y="7" width="3" height="1"/>
  <rect x="10" y="19" width="3" height="1"/>
  <rect x="11" y="6" width="3" height="1"/>
  <rect x="11" y="20" width="4" height="1"/>
  <rect x="12" y="5" width="4" height="1"/>
  <rect x="12" y="21" width="5" height="1"/>
  <rect x="13" y="4" width="12" height="1"/>
  <rect x="14" y="22" width="10" height="1"/>
  <rect x="15" y="3" width="8" height="1"/>
  <rect x="16" y="26" width="2" height="7"/>
  <rect x="16" y="23" width="6" height="1"/>
  <rect x="16" y="33" width="6" height="2"/>
  <rect x="21" y="21" width="5" height="1"/>
  <rect x="22" y="5" width="4" height="1"/>
  <rect x="23" y="20" width="4" height="1"/>
  <rect x="24" y="6" width="3" height="1"/>
  <rect x="25" y="7" width="3" height="1"/>
  <rect x="25" y="18" width="3" height="2"/>
  <rect x="26" y="8" width="2" height="1"/>
  <rect x="26" y="9" width="3" height="1"/>
  <rect x="26" y="17" width="3" height="1"/>
  <rect x="27" y="10" width="2" height="7"/>
</g>
</svg>
