<?xml version="1.0" encoding="UTF-8"?>
<svg xmlns="http://www.w3.org/2000/svg" viewBox="0 0 38 38" shape-rendering="crispEdges">
<g fill="black" stroke="none">
  <rect x="8" y="19" width="2" height="8"/>
  <rect x="8" y="18" width="3" height="1"/>
  <rect x="8" y="27" width="3" height="1"/>
  <rect x="9" y="17" width="2" height="1"/>
  <rect x="9" y="16" width="3" height="1"/>
  <rect x="9" y="28" width="3" height="1"/>
  <rect x="10" y="15" width="3" height="1"/>
  <rect x="10" y="29" width="3" height="1"/>
  <rect x="10" y="30" width="4" height="1"/>
  <rect x="11" y="14" width="4" height="1"/>
  <rect x="11" y="31" width="5" height="1"/>
  <rect x="12" y="13" width="5" height="1"/>
  <rect x="13" y="32" width="12" height="1"/>
  <rect x="14" y="12" width="10" height="1"/>
  <rect x="15" y="33" width="8" height="1"/>
  <rect x="16" y="5" width="6" height="3"/>
  <rect x="17" y="4" width="4" height="1"/>
  <rect x="17" y="8" width="4" height="1"/>
  <rect x="18" y="9" width="2" height="1"/>
  <rect x="18" y="11" width="2" height="1"/>
  <rect x="21" y="13" width="5" height="1"/>
  <rect x="22" y="31" width="5" height="1"/>
  <rect x="23" y="14" width="4" height="1"/>
  <rect x="24" y="30" width="4" height="1"/>
  <rect x="25" y="15" width="3" height="1"/>
  <rect x="25" y="29" width="3" height="1"/>
  <rect x="26" y="16" width="3" height="1"/>
  <rect x="26" y="28" width="3" height="1"/>
  <rect x="27" y="17" width="2" height="1"/>
  <rect x="27" y="18" width="3" height="1"/>
  <rect x="27" y="27" width="3" height="1"/>
  <rect x="28" y="19" width="2" height="8"/>
</g>
</svg>
