<?xml version="1.0" encoding="UTF-8"?>
<svg xmlns="http://www.w3.org/2000/svg" viewBox="0 0 38 38" shape-rendering="crispEdges">
<g fill="black" stroke="none">
  <rect x="4" y="16" width="2" height="6"/>
  <rect x="4" y="15" width="3" height="1"/>
  <rect x="4" y="22" width="3" height="1"/>
  <rect x="5" y="14" width="2" height="1"/>
  <rect x="5" y="23" width="2" height="1"/>
  <rect x="5" y="13" width="3" height="1"/>
  <rect x="5" y="24" width="3" height="1"/>
  <rect x="6" y="12" width="3" height="1"/>
  <rect x="6" y="25" width="3" height="1"/>
  <rect x="6" y="11" width="4" height="1"/>
  <rect x="6" y="26" width="4" height="1"/>
  <rect x="7" y="10" width="4" height="1"/>
  <rect x="7" y="27" width="4" height="1"/>
  <rect x="9" y="9" width="13" height="1"/>
  <rect x="9" y="28" width="13" height="1"/>
  <rect x="10" y="8" width="10" height="1"/>
  <rect x="10" y="29" width="10" height="1"/>
  <rect x="19" y="10" width="4" height="1"/>
  <rect x="19" y="27" width="4" height="1"/>
  <rect x="21" y="11" width="3" height="1"/>
  <rect x="21" y="26" width="3" height="1"/>
  <rect x="22" y="12" width="3" height="1"/>
  <rect x="22" y="25" width="3" height="1"/>
  <rect x="23" y="13" width="2" height="1"/>
  <rect x="23" y="24" width="2" height="1"/>
  <rect x="23" y="14" width="3" height="1"/>
  <rect x="23" y="23" width="3" height="1"/>
  <rect x="24" y="15" width="2" height="2"/>
  <rect x="24" y="20" width="2" height="3"/>
  <rect x="24" y="17" width="3" height="1"/>
  <rect x="25" y="18" width="2" height="2"/>
  <rect x="28" y="18" width="6" height="2"/>
  <rect x="29" y="17" width="5" height="1"/>
  <rect x="29" y="20" width="5" height="1"/>
  <rect x="30" y="16" width="3" height="1"/>
  <rect x="30" y="21" width="3" height="1"/>
</g>
</svg>
