<?xml version="1.0" encoding="UTF-8"?>
<svg xmlns="http://www.w3.org/2000/svg" viewBox="0 0 38 38" shape-rendering="crispEdges">
<g fill="black" stroke="none">
  <rect x="8" y="15" width="2" height="8"/>
  <rect x="8" y="29" width="2" height="1"/>
  <rect x="8" y="14" width="3" height="1"/>
  <rect x="8" y="23" width="3" height="1"/>
  <rect x="8" y="28" width="3" height="1"/>
  <rect x="9" y="12" width="3" height="2"/>
  <rect x="9" y="25" width="5" height="1"/>
  <rect x="9" y="24" width="6" height="1"/>
  <rect x="9" y="27" width="6" height="1"/>
  <rect x="10" y="11" width="4" height="1"/>
  <rect x="10" y="26" width="4" height="1"/>
  <rect x="11" y="10" width="4" height="1"/>
  <rect x="12" y="9" width="14" height="1"/>
  <rect x="12" y="28" width="14" height="1"/>
  <rect x="13" y="23" width="2" height="1"/>
  <rect x="14" y="8" width="10" height="1"/>
  <rect x="14" y="29" width="10" height="1"/>
  <rect x="23" y="10" width="4" height="1"/>
  <rect x="23" y="27" width="4" height="1"/>
  <rect x="24" y="11" width="4" height="1"/>
  <rect x="24" y="26" width="4" height="1"/>
  <rect x="26" y="12" width="3" height="2"/>
  <rect x="26" y="24" width="3" height="2"/>
  <rect x="27" y="14" width="3" height="1"/>
  <rect x="27" y="23" width="3" height="1"/>
  <rect x="28" y="15" width="2" height="8"/>
</g>
</svg>
