<?xml version="1.0" encoding="UTF-8"?>
<svg xmlns="http://www.w3.org/2000/svg" viewBox="0 0 38 38" shape-rendering="crispEdges">
<g fill="black" stroke="none">
  <rect x="6" y="26" width="2" height="1"/>
  <rect x="6" y="25" width="3" height="1"/>
  <rect x="7" y="24" width="3" height="1"/>
  <rect x="8" y="23" width="3" height="1"/>
  <rect x="9" y="22" width="3" height="1"/>
  <rect x="10" y="21" width="3" height="1"/>
  <rect x="11" y="20" width="3" height="1"/>
  <rect x="12" y="19" width="3" height="1"/>
  <rect x="13" y="18" width="3" height="1"/>
  <rect x="14" y="17" width="3" height="1"/>
  <rect x="15" y="16" width="3" height="1"/>
  <rect x="16" y="7" width="6" height="3"/>
  <rect x="16" y="15" width="6" height="1"/>
  <rect x="17" y="6" width="4" height="1"/>
  <rect x="17" y="10" width="4" height="1"/>
  <rect x="17" y="14" width="4" height="1"/>
  <rect x="18" y="13" width="2" height="1"/>
  <rect x="20" y="16" width="3" height="1"/>
  <rect x="21" y="17" width="3" height="1"/>
  <rect x="22" y="18" width="3" height="1"/>
  <rect x="23" y="19" width="3" height="1"/>
  <rect x="24" y="20" width="3" height="1"/>
  <rect x="25" y="21" width="3" height="1"/>
  <rect x="26" y="22" width="3" height="1"/>
  <rect x="27" y="23" width="3" height="1"/>
  <rect x="28" y="24" width="3" height="1"/>
  <rect x="29" y="25" width="3" height="1"/>
  <rect x="30" y="26" width="2" height="1"/>
</g>
</svg>
