<?xml version="1.0" encoding="UTF-8"?>
<svg xmlns="http://www.w3.org/2000/svg" viewBox="0 0 38 38" shape-rendering="crispEdges">
<g fill="black" stroke="none">
  <rect x="12" y="6" width="2" height="1"/>
  <rect x="12" y="7" width="3" height="1"/>
  <rect x="13" y="8" width="2" height="2"/>
  <rect x="13" y="10" width="3" height="1"/>
  <rect x="14" y="11" width="2" height="2"/>
  <rect x="14" y="13" width="3" height="1"/>
  <rect x="15" y="14" width="2" height="2"/>
  <rect x="15" y="16" width="3" height="1"/>
  <rect x="16" y="17" width="2" height="3"/>
  <rect x="16" y="29" width="6" height="3"/>
  <rect x="17" y="20" width="4" height="3"/>
  <rect x="17" y="28" width="4" height="1"/>
  <rect x="17" y="32" width="4" height="1"/>
  <rect x="18" y="23" width="2" height="5"/>
  <rect x="20" y="17" width="2" height="3"/>
  <rect x="20" y="16" width="3" height="1"/>
  <rect x="21" y="14" width="2" height="2"/>
  <rect x="21" y="13" width="3" height="1"/>
  <rect x="22" y="11" width="2" height="2"/>
  <rect x="22" y="10" width="3" height="1"/>
  <rect x="23" y="8" width="2" height="2"/>
  <rect x="23" y="7" width="3" height="1"/>
  <rect x="24" y="6" width="2" height="1"/>
</g>
</svg>
