<?xml version="1.0" encoding="UTF-8"?>
<svg xmlns="http://www.w3.org/2000/svg" viewBox="0 0 38 38" shape-rendering="crispEdges">
<g fill="black" stroke="none">
  <rect x="12" y="31" width="2" height="1"/>
  <rect x="12" y="30" width="3" height="1"/>
  <rect x="13" y="28" width="2" height="2"/>
  <rect x="13" y="27" width="3" height="1"/>
  <rect x="14" y="25" width="2" height="2"/>
  <rect x="14" y="24" width="3" height="1"/>
  <rect x="15" y="22" width="2" height="2"/>
  <rect x="15" y="21" width="3" height="1"/>
  <rect x="16" y="18" width="2" height="3"/>
  <rect x="16" y="6" width="6" height="3"/>
  <rect x="17" y="5" width="4" height="1"/>
  <rect x="17" y="9" width="4" height="1"/>
  <rect x="17" y="15" width="4" height="3"/>
  <rect x="18" y="10" width="2" height="5"/>
  <rect x="20" y="18" width="2" height="3"/>
  <rect x="20" y="21" width="3" height="1"/>
  <rect x="21" y="22" width="2" height="2"/>
  <rect x="21" y="24" width="3" height="1"/>
  <rect x="22" y="25" width="2" height="2"/>
  <rect x="22" y="27" width="3" height="1"/>
  <rect x="23" y="28" width="2" height="2"/>
  <rect x="23" y="30" width="3" height="1"/>
  <rect x="24" y="31" width="2" height="1"/>
</g>
</svg>
