<?xml version="1.0" encoding="UTF-8"?>
<svg xmlns="http://www.w3.org/2000/svg" viewBox="0 0 38 38" shape-rendering="crispEdges">
<g fill="black" stroke="none">
  <rect x="5" y="17" width="5" height="1"/>
  <rect x="5" y="20" width="5" height="1"/>
  <rect x="5" y="18" width="13" height="2"/>
  <rect x="6" y="16" width="3" height="1"/>
  <rect x="6" y="21" width="3" height="1"/>
  <rect x="15" y="17" width="7" height="1"/>
  <rect x="15" y="20" width="7" height="1"/>
  <rect x="18" y="16" width="7" height="1"/>
  <rect x="18" y="21" width="7" height="1"/>
  <rect x="21" y="15" width="7" height="1"/>
  <rect x="21" y="22" width="7" height="1"/>
  <rect x="24" y="14" width="7" height="1"/>
  <rect x="24" y="23" width="7" height="1"/>
  <rect x="27" y="13" width="5" height="1"/>
  <rect x="27" y="24" width="5" height="1"/>
  <rect x="30" y="12" width="2" height="1"/>
  <rect x="30" y="25" width="2" height="1"/>
</g>
</svg>
