<?xml version="1.0" encoding="UTF-8"?>
<svg xmlns="http://www.w3.org/2000/svg" viewBox="0 0 38 38" shape-rendering="crispEdges">
<g fill="black" stroke="none">
  <rect x="6" y="24" width="1" height="1"/>
  <rect x="6" y="23" width="3" height="1"/>
  <rect x="6" y="22" width="5" height="1"/>
  <rect x="8" y="21" width="5" height="1"/>
  <rect x="10" y="20" width="5" height="1"/>
  <rect x="12" y="19" width="5" height="1"/>
  <rect x="13" y="31" width="3" height="1"/>
  <rect x="14" y="30" width="2" height="1"/>
  <rect x="14" y="29" width="3" height="1"/>
  <rect x="14" y="18" width="5" height="1"/>
  <rect x="15" y="28" width="2" height="1"/>
  <rect x="15" y="27" width="3" height="1"/>
  <rect x="16" y="26" width="2" height="1"/>
  <rect x="16" y="25" width="3" height="1"/>
  <rect x="16" y="17" width="7" height="1"/>
  <rect x="17" y="24" width="2" height="1"/>
  <rect x="17" y="23" width="3" height="1"/>
  <rect x="18" y="22" width="2" height="1"/>
  <rect x="18" y="21" width="3" height="1"/>
  <rect x="18" y="16" width="5" height="1"/>
  <rect x="19" y="20" width="2" height="1"/>
  <rect x="19" y="19" width="3" height="1"/>
  <rect x="20" y="18" width="2" height="1"/>
  <rect x="20" y="15" width="4" height="1"/>
  <rect x="22" y="14" width="3" height="1"/>
  <rect x="23" y="13" width="6" height="1"/>
  <rect x="24" y="9" width="6" height="4"/>
  <rect x="25" y="8" width="4" height="1"/>
</g>
</svg>
