<?xml version="1.0" encoding="UTF-8"?>
<svg xmlns="http://www.w3.org/2000/svg" viewBox="0 0 38 38" shape-rendering="crispEdges">
<g fill="black" stroke="none">
  <rect x="5" y="14" width="2" height="1"/>
  <rect x="5" y="15" width="3" height="1"/>
  <rect x="6" y="20" width="2" height="2"/>
  <rect x="6" y="19" width="3" height="1"/>
  <rect x="6" y="16" width="4" height="1"/>
  <rect x="7" y="17" width="6" height="1"/>
  <rect x="7" y="18" width="24" height="1"/>
  <rect x="12" y="19" width="14" height="1"/>
  <rect x="13" y="24" width="2" height="1"/>
  <rect x="13" y="23" width="3" height="1"/>
  <rect x="14" y="20" width="2" height="3"/>
  <rect x="22" y="20" width="2" height="3"/>
  <rect x="22" y="23" width="3" height="1"/>
  <rect x="23" y="24" width="2" height="1"/>
  <rect x="25" y="17" width="6" height="1"/>
  <rect x="28" y="16" width="4" height="1"/>
  <rect x="29" y="19" width="3" height="1"/>
  <rect x="30" y="20" width="2" height="2"/>
  <rect x="30" y="15" width="3" height="1"/>
  <rect x="31" y="14" width="2" height="1"/>
</g>
</svg>
