<?xml version="1.0" encoding="UTF-8"?>
<svg xmlns="http://www.w3.org/2000/svg" viewBox="0 0 38 38" shape-rendering="crispEdges">
<g fill="black" stroke="none">
  <rect x="8" y="6" width="3" height="3"/>
  <rect x="8" y="29" width="3" height="3"/>
  <rect x="9" y="9" width="1" height="1"/>
  <rect x="9" y="28" width="1" height="1"/>
  <rect x="12" y="9" width="4" height="3"/>
  <rect x="12" y="26" width="4" height="3"/>
  <rect x="14" y="8" width="1" height="1"/>
  <rect x="14" y="29" width="1" height="1"/>
  <rect x="17" y="12" width="4" height="3"/>
  <rect x="17" y="23" width="4" height="3"/>
  <rect x="18" y="11" width="2" height="1"/>
  <rect x="18" y="26" width="2" height="1"/>
  <rect x="22" y="14" width="3" height="1"/>
  <rect x="22" y="17" width="3" height="1"/>
  <rect x="22" y="20" width="3" height="1"/>
  <rect x="22" y="23" width="3" height="1"/>
  <rect x="22" y="15" width="4" height="2"/>
  <rect x="22" y="21" width="4" height="2"/>
  <rect x="27" y="17" width="3" height="4"/>
</g>
</svg>
